<svg width="14" height="14" viewBox="0 0 24 24" fill="none" xmlns="http://www.w3.org/2000/svg" data-reactroot="">
<path fill="#7D55FF" d="M3.29289 13.2929C3.68342 12.9024 4.31658 12.9024 4.70711 13.2929L12 20.5858L19.2929 13.2929C19.6834 12.9024 20.3166 12.9024 20.7071 13.2929C21.0976 13.6834 21.0976 14.3166 20.7071 14.7071L12.7071 22.7071C12.3166 23.0976 11.6834 23.0976 11.2929 22.7071L3.29289 14.7071C2.90237 14.3166 2.90237 13.6834 3.29289 13.2929Z" clip-rule="evenodd" fill-rule="evenodd" undefined="1"></path>
<path fill="#C4B6FF" d="M11.2929 1.29289C11.6834 0.902369 12.3166 0.902369 12.7071 1.29289L20.7071 9.29289C21.0976 9.68342 21.0976 10.3166 20.7071 10.7071C20.3166 11.0976 19.6834 11.0976 19.2929 10.7071L12 3.41421L4.70711 10.7071C4.31658 11.0976 3.68342 11.0976 3.29289 10.7071C2.90237 10.3166 2.90237 9.68342 3.29289 9.29289L11.2929 1.29289Z" clip-rule="evenodd" fill-rule="evenodd" undefined="1"></path>
</svg>
